# xmcd
#
# Track frame offsets: 
#        150
#        7430
#        26325
#        44015
#        62120
#        84442
#        104392
#        114566
#        133251
#        152676
#        171861
#        188776
#        207954
#        225501
#        242806
#        261866
#        276574
#
# Disc length: 3752 seconds
#
# Revision: 1
# Processed by: cddbd v1.5.2PL0 Copyright (c) Steve Scherf et al.
# Submitted via: ExactAudioCopyFreeDBPlugin 1.0
#
DISCID=f70ea611
DTITLE=Syleena Johnson - Chapter 4: Labor Pains
DYEAR=2008
DGENRE=R&B
TTITLE0=Intro
TTITLE1=Labor Pains
TTITLE2=Where's the Love (feat. Teefa)
TTITLE3=Freedom
TTITLE4=Is It Because I'm Black
TTITLE5=Be Me
TTITLE6=Redstorm's Domestic Lesson (Interlude)
TTITLE7=You Let Me Down
TTITLE8=Shoo Fly
TTITLE9=Maury Povich
TTITLE10=It is True
TTITLE11=Your Love
TTITLE12=My First
TTITLE13=Personal Trainer
TTITLE14=Go Home
TTITLE15=Go
TTITLE16=Outro
EXTD=
EXTT0=
EXTT1=
EXTT2=
EXTT3=
EXTT4=
EXTT5=
EXTT6=
EXTT7=
EXTT8=
EXTT9=
EXTT10=
EXTT11=
EXTT12=
EXTT13=
EXTT14=
EXTT15=
EXTT16=
PLAYORDER=
